<svg width="255" height="60" viewBox="0 0 255 60" fill="none" xmlns="http://www.w3.org/2000/svg">
<path d="M96.1154 29.773C96.1154 30.2387 96.0895 30.756 96.0378 31.3251C96.0119 31.8683 95.9731 32.2693 95.9214 32.528H81.8364C82.0175 35.0113 82.7159 36.8349 83.9317 37.999C85.1475 39.163 86.8289 39.745 88.9759 39.745C90.0623 39.745 91.1488 39.5898 92.2352 39.2794C93.3475 38.969 94.3822 38.5163 95.3393 37.9214C95.3135 38.387 95.2488 38.9173 95.1453 39.5122C95.0677 40.0813 94.9643 40.5599 94.8349 40.9479C93.9813 41.4135 93.0242 41.7757 91.9636 42.0343C90.9289 42.293 89.8683 42.4224 88.7819 42.4224C85.3415 42.4224 82.7547 41.4523 81.0216 39.5122C79.2884 37.5463 78.4219 34.8043 78.4219 31.2863C78.4219 29.191 78.7582 27.3285 79.4307 25.6989C80.1033 24.0692 81.125 22.7888 82.496 21.8575C83.8929 20.9004 85.626 20.4219 87.6954 20.4219C89.532 20.4219 91.0841 20.8228 92.3516 21.6247C93.6191 22.4008 94.5633 23.4872 95.1841 24.8841C95.805 26.2809 96.1154 27.9106 96.1154 29.773ZM87.579 23.0992C85.8718 23.0992 84.5267 23.6941 83.5437 24.8841C82.5866 26.0481 82.0175 27.7036 81.8364 29.8506H92.7784V29.7342C92.7784 27.7166 92.3387 26.1128 91.4592 24.9229C90.6056 23.7071 89.3122 23.0992 87.579 23.0992Z" fill="#444444"/>
<path d="M71.6603 42.4224C69.6685 42.4224 67.9353 42.0085 66.4609 41.1807C64.9864 40.3529 63.8353 39.1242 63.0075 37.4946C62.2056 35.8649 61.8047 33.8601 61.8047 31.4803C61.8047 28.997 62.2186 26.9405 63.0463 25.3109C63.8741 23.6553 65.0381 22.4266 66.5385 21.6247C68.0388 20.8228 69.7978 20.4219 71.8155 20.4219C73.6004 20.4219 75.1654 20.7194 76.5105 21.3143C76.5105 21.6765 76.4717 22.1162 76.3941 22.6336C76.3423 23.1509 76.2777 23.6165 76.2001 24.0304C74.9067 23.4872 73.5098 23.2156 72.0095 23.2156C70.5868 23.2156 69.3581 23.5389 68.3233 24.1856C67.3145 24.8323 66.5385 25.7765 65.9953 27.0181C65.452 28.2598 65.1804 29.7601 65.1804 31.5191C65.1804 33.2005 65.4391 34.662 65.9564 35.9037C66.4997 37.1195 67.2757 38.0636 68.2845 38.7362C69.3192 39.4088 70.548 39.745 71.9707 39.745C72.7209 39.745 73.5098 39.6416 74.3376 39.4346C75.1654 39.2277 75.8896 38.9302 76.5105 38.5422C76.4846 39.2665 76.3294 40.2236 76.0449 41.4135C75.5534 41.7239 74.8937 41.9697 74.066 42.1507C73.2382 42.3318 72.4363 42.4224 71.6603 42.4224Z" fill="#444444"/>
<path d="M31.5015 14.7549C29.7942 14.7549 28.5913 15.13 27.8929 15.8802C27.1945 16.6303 26.8453 17.7297 26.8453 19.1783V20.9244H34.5668C34.515 21.9591 34.4116 22.8774 34.2564 23.6793H26.8453V41.916H23.5859V19.1395C23.5859 14.3798 26.1468 12 31.2686 12C32.6396 12 33.8942 12.1423 35.0324 12.4268C35.0324 13.3063 34.9548 14.2376 34.7996 15.2205C34.334 15.0653 33.8037 14.9489 33.2087 14.8713C32.6138 14.7937 32.0447 14.7549 31.5015 14.7549ZM46.6341 14.7549C44.9268 14.7549 43.7239 15.13 43.0255 15.8802C42.3271 16.6303 41.9779 17.7297 41.9779 19.1783V20.9244H49.6994C49.6476 21.9591 49.5442 22.8774 49.389 23.6793H41.9779V41.916H38.7185V19.1395C38.7185 14.3798 41.2794 12 46.4012 12C47.7722 12 49.0268 12.1423 50.165 12.4268C50.165 13.3063 50.0874 14.2376 49.9322 15.2205C49.4666 15.0653 48.9363 14.9489 48.3413 14.8713C47.7464 14.7937 47.1773 14.7549 46.6341 14.7549ZM53.9287 20.9244H57.1881V41.916H53.9287V20.9244ZM55.5584 16.889C54.9376 16.889 54.4202 16.695 54.0063 16.307C53.6183 15.919 53.4243 15.4016 53.4243 14.7549C53.4243 14.1082 53.6183 13.5779 54.0063 13.164C54.4202 12.7502 54.9376 12.5432 55.5584 12.5432C56.1792 12.5432 56.6837 12.7502 57.0717 13.164C57.4597 13.5779 57.6537 14.1082 57.6537 14.7549C57.6537 15.4016 57.4597 15.919 57.0717 16.307C56.6837 16.695 56.1792 16.889 55.5584 16.889Z" fill="#444444"/>
<path d="M9.46758 42.4224C7.47576 42.4224 5.7685 41.9826 4.34577 41.1031C2.92305 40.1977 1.83661 38.9302 1.08644 37.3005C0.362148 35.645 0 33.7049 0 31.4803C0 29.2298 0.362148 27.2768 1.08644 25.6213C1.83661 23.9399 2.92305 22.6594 4.34577 21.7799C5.7685 20.8746 7.47576 20.4219 9.46758 20.4219C11.4594 20.4219 13.1667 20.8746 14.5894 21.7799C16.0121 22.6594 17.0856 23.9399 17.8099 25.6213C18.5342 27.2768 18.8964 29.2298 18.8964 31.4803C18.8964 33.7049 18.5213 35.645 17.7711 37.3005C17.0468 38.9302 15.9733 40.1977 14.5506 41.1031C13.1537 41.9826 11.4594 42.4224 9.46758 42.4224ZM9.46758 39.745C11.4594 39.745 12.9727 39.0337 14.0074 37.611C15.0421 36.1624 15.5594 34.1188 15.5594 31.4803C15.5594 28.8159 15.0421 26.7595 14.0074 25.3109C12.9985 23.8364 11.4853 23.0992 9.46758 23.0992C7.42403 23.0992 5.89784 23.8364 4.889 25.3109C3.88015 26.7595 3.37573 28.8159 3.37573 31.4803C3.37573 34.1188 3.89309 36.1624 4.9278 37.611C5.9625 39.0337 7.47576 39.745 9.46758 39.745Z" fill="#444444"/>
<rect x="103.882" y="0.881853" width="150.099" height="57.6975" rx="1.11815" fill="#EC0000"/>
<rect x="103.882" y="0.881853" width="150.099" height="57.6975" rx="1.11815" stroke="#EC0000" stroke-width="1.76371"/>
<path d="M246.824 21.6247V41.4135C246.824 44.5694 246.009 47.0268 244.379 48.7858C242.75 50.5707 240.189 51.4631 236.697 51.4631C234.498 51.4631 232.39 50.9975 230.372 50.0663C230.398 49.4713 230.45 48.8375 230.527 48.165C230.605 47.4924 230.695 46.8975 230.799 46.3801C231.678 46.8716 232.636 47.2337 233.67 47.4666C234.731 47.7252 235.714 47.8546 236.619 47.8546C238.637 47.8546 240.137 47.3372 241.12 46.3025C242.129 45.2678 242.633 43.7933 242.633 41.8791V39.3182C242.09 40.3529 241.379 41.1419 240.499 41.6851C239.646 42.2025 238.546 42.4612 237.201 42.4612C235.546 42.4612 234.084 42.0602 232.817 41.2583C231.549 40.4564 230.553 39.2406 229.829 37.611C229.13 35.9813 228.781 33.9636 228.781 31.5579C228.781 28.0399 229.635 25.3109 231.342 23.3708C233.049 21.4048 235.688 20.4219 239.258 20.4219C242.155 20.4219 244.69 20.797 246.863 21.5471L246.824 21.6247ZM238.443 39.0466C239.271 39.0466 240.021 38.8914 240.693 38.581C241.392 38.2447 242.038 37.7791 242.633 37.1841V24.2244C241.599 23.9657 240.486 23.8364 239.296 23.8364C237.098 23.8364 235.507 24.5219 234.524 25.8929C233.541 27.2639 233.049 29.1134 233.049 31.4415C233.049 33.9507 233.502 35.852 234.407 37.1453C235.339 38.4129 236.684 39.0466 238.443 39.0466Z" fill="white"/>
<path d="M217.817 20.4219C220.042 20.4219 221.723 21.0686 222.862 22.362C224.026 23.6553 224.608 25.4143 224.608 27.639V41.9567H220.417V28.997C220.417 27.3415 220.107 26.074 219.486 25.1945C218.865 24.2891 217.766 23.8364 216.188 23.8364C215.308 23.8364 214.467 24.0434 213.666 24.4572C212.89 24.8711 212.23 25.3626 211.687 25.9317V41.9567H207.496V20.9263H211.376L211.609 24.0692C212.333 22.8276 213.187 21.9093 214.17 21.3143C215.179 20.7194 216.395 20.4219 217.817 20.4219Z" fill="white"/>
<path d="M199.721 17.4718C198.945 17.4718 198.311 17.239 197.819 16.7734C197.328 16.2819 197.082 15.6352 197.082 14.8333C197.082 14.0314 197.328 13.3847 197.819 12.8932C198.311 12.3759 198.945 12.1172 199.721 12.1172C200.471 12.1172 201.079 12.3759 201.544 12.8932C202.036 13.3847 202.281 14.0314 202.281 14.8333C202.281 15.6352 202.036 16.2819 201.544 16.7734C201.079 17.239 200.471 17.4718 199.721 17.4718ZM197.586 20.9251H201.777V41.9556H197.586V20.9251Z" fill="white"/>
<path d="M176.953 12.6208C178.169 12.2069 179.566 12 181.144 12V41.9548H176.953V12.6208ZM186.227 30.6247L194.724 41.9548H189.602L181.687 30.8576V30.5859L188.982 20.9244H193.793L186.227 30.6247Z" fill="white"/>
<path d="M164.708 20.4219C166.933 20.4219 168.614 21.0686 169.752 22.362C170.916 23.6553 171.498 25.4143 171.498 27.639V41.9567H167.308V28.997C167.308 27.3415 166.997 26.074 166.376 25.1945C165.756 24.2891 164.656 23.8364 163.078 23.8364C162.199 23.8364 161.358 24.0434 160.556 24.4572C159.78 24.8711 159.121 25.3626 158.577 25.9317V41.9567H154.387V20.9263H158.267L158.5 24.0692C159.224 22.8276 160.078 21.9093 161.061 21.3143C162.069 20.7194 163.285 20.4219 164.708 20.4219Z" fill="white"/>
<path d="M141.251 20.4219C143.89 20.4219 145.843 21.0298 147.11 22.2455C148.404 23.4355 149.05 25.1686 149.05 27.445V41.9567H145.131L144.937 39.2406C144.368 40.2495 143.592 41.0384 142.609 41.6075C141.652 42.1766 140.436 42.4612 138.962 42.4612C137.643 42.4612 136.466 42.2154 135.431 41.7239C134.422 41.2066 133.62 40.4693 133.025 39.5122C132.43 38.5551 132.133 37.3911 132.133 36.0201C132.133 34.2352 132.56 32.8125 133.413 31.7519C134.267 30.6655 135.534 29.8636 137.216 29.3462C138.923 28.803 141.135 28.4538 143.851 28.2986L144.86 28.2598V27.6002C144.86 26.3326 144.549 25.3885 143.928 24.7676C143.308 24.1468 142.221 23.8364 140.669 23.8364C139.143 23.8364 137.837 23.9657 136.75 24.2244C135.69 24.4831 134.616 24.8582 133.53 25.3497C133.53 24.8582 133.556 24.2891 133.607 23.6424C133.659 22.9957 133.724 22.4008 133.801 21.8575C135.767 20.9004 138.251 20.4219 141.251 20.4219ZM139.854 39.1242C140.889 39.1242 141.846 38.9043 142.726 38.4646C143.631 38.0248 144.342 37.4299 144.86 36.6797V31.3251L144.084 31.3639C141.963 31.5191 140.333 31.7907 139.195 32.1787C138.082 32.5409 137.319 33.0065 136.905 33.5756C136.492 34.1447 136.285 34.8819 136.285 35.7873C136.285 36.7961 136.595 37.611 137.216 38.2318C137.837 38.8267 138.716 39.1242 139.854 39.1242Z" fill="white"/>
<path d="M120.662 20.4199C122.317 20.4199 123.779 20.8209 125.046 21.6228C126.314 22.3988 127.297 23.6017 127.995 25.2313C128.719 26.861 129.082 28.8787 129.082 31.2844C129.082 34.8024 128.228 37.5444 126.521 39.5103C124.813 41.4762 122.188 42.4592 118.644 42.4592C117.066 42.4592 115.669 42.3557 114.453 42.1488C113.263 41.9677 112.112 41.6961 111 41.334V12.6208C112.216 12.2069 113.613 12 115.191 12V23.5629C115.734 22.554 116.445 21.778 117.325 21.2348C118.23 20.6915 119.342 20.4199 120.662 20.4199ZM118.605 39.0447C120.804 39.0447 122.382 38.3592 123.339 36.9882C124.322 35.5913 124.813 33.7418 124.813 31.4396C124.813 28.9045 124.348 27.0033 123.416 25.7357C122.511 24.4682 121.179 23.8345 119.42 23.8345C117.816 23.8345 116.406 24.4682 115.191 25.7357V38.6567C116.225 38.9153 117.363 39.0447 118.605 39.0447Z" fill="white"/>
</svg>